<svg width="11" height="13" viewBox="0 0 11 13" fill="none" xmlns="http://www.w3.org/2000/svg">
<path fill-rule="evenodd" clip-rule="evenodd" d="M0 1.58354C0 1.16356 0.166837 0.760781 0.463809 0.463809C0.760781 0.166837 1.16356 0 1.58354 0H8.55095C8.97085 0.000125964 9.3735 0.167019 9.67037 0.463977C9.96724 0.760935 10.134 1.16364 10.134 1.58354V3.32528C10.134 3.40925 10.1007 3.48978 10.0413 3.54916C9.9819 3.60853 9.90137 3.64189 9.8174 3.64189C9.73343 3.64189 9.6529 3.60853 9.59352 3.54916C9.53414 3.48978 9.50079 3.40925 9.50079 3.32528V1.58354C9.50079 1.33157 9.40069 1.08991 9.22252 0.911736C9.04434 0.733562 8.80268 0.633465 8.55071 0.633465H1.58331C1.33133 0.633465 1.08967 0.733562 0.911499 0.911736C0.733325 1.08991 0.633227 1.33157 0.633227 1.58354V11.0843C0.633227 11.3363 0.733325 11.578 0.911499 11.7561C1.08967 11.9343 1.33133 12.0344 1.58331 12.0344H8.55071C8.80268 12.0344 9.04434 11.9343 9.22252 11.7561C9.40069 11.578 9.50079 11.3363 9.50079 11.0843V9.34236C9.50079 9.25839 9.53414 9.17786 9.59352 9.11848C9.6529 9.0591 9.73343 9.02575 9.8174 9.02575C9.90137 9.02575 9.9819 9.0591 10.0413 9.11848C10.1007 9.17786 10.134 9.25839 10.134 9.34236V11.0843C10.134 11.5042 9.96712 11.9069 9.6702 12.2038C9.37329 12.5007 8.97061 12.6676 8.55071 12.6676H1.58331C1.16345 12.6675 0.760825 12.5007 0.463963 12.2037C0.1671 11.9068 0.000300346 11.5042 0.000237389 11.0843L0 1.58354Z" fill="#9747FF"/>
<path fill-rule="evenodd" clip-rule="evenodd" d="M8.01013 4.52641C7.88661 4.65015 7.88661 4.85062 8.01013 4.97437L9.05307 6.01708H4.11718C4.03318 6.01708 3.95261 6.05045 3.89321 6.10985C3.83382 6.16925 3.80045 6.24981 3.80045 6.33381C3.80045 6.41781 3.83382 6.49838 3.89321 6.55778C3.95261 6.61717 4.03318 6.65054 4.11718 6.65054H9.05284L8.01013 7.69325C7.98071 7.72265 7.95738 7.75756 7.94145 7.79597C7.92553 7.83439 7.91733 7.87557 7.91731 7.91715C7.9173 7.95874 7.92548 7.99992 7.94139 8.03834C7.95729 8.07677 7.98061 8.11169 8.01001 8.1411C8.0394 8.17051 8.07431 8.19385 8.11272 8.20977C8.15114 8.2257 8.19232 8.2339 8.2339 8.23391C8.27549 8.23392 8.31667 8.22574 8.35509 8.20984C8.39352 8.19393 8.42844 8.17062 8.45785 8.14122L10.0414 6.55791C10.1649 6.4344 10.1649 6.2337 10.0414 6.10995L8.45785 4.52664C8.42845 4.49721 8.39353 4.47386 8.3551 4.45794C8.31667 4.44201 8.27547 4.43381 8.23387 4.43381C8.19227 4.43381 8.15107 4.44201 8.11264 4.45794C8.07421 4.47386 8.03929 4.49721 8.00989 4.52664L8.01013 4.52641Z" fill="#9747FF"/>
</svg>
