<?xml version="1.0" encoding="UTF-8"?><svg xmlns="http://www.w3.org/2000/svg" viewBox="0 0 274.93 66.97"><defs><style>.d{fill:#fff;}.e{fill:#faf8f8;}</style></defs><g id="a"/><g id="b"><g id="c"><g><g><path class="d" d="M33.49,0c-7.17,0-13.81,2.25-19.26,6.09,.55,.91,.86,1.97,.86,3.11,0,3.36-2.73,6.1-6.1,6.1-1.12,0-2.16-.3-3.06-.83C2.19,19.87,0,26.42,0,33.49c0,18.49,14.99,33.49,33.49,33.49,5.96,0,11.56-1.56,16.41-4.29-.46-1.13-.71-2.36-.71-3.65,0-5.36,4.36-9.71,9.71-9.71,1.31,0,2.56,.26,3.7,.73,2.79-4.88,4.38-10.54,4.38-16.56C66.97,14.99,51.98,0,33.49,0Zm0,55c-11.86,0-21.51-9.65-21.51-21.51S21.62,11.97,33.49,11.97s21.51,9.65,21.51,21.51-9.65,21.51-21.51,21.51Z"/><circle class="d" cx="33.49" cy="33.49" r="13.49"/><path class="d" d="M65.98,59.03c0,3.91-3.17,7.09-7.09,7.09-3.13,0-5.78-2.03-6.72-4.84-.24-.71-.37-1.46-.37-2.25,0-3.91,3.17-7.09,7.09-7.09,.8,0,1.57,.13,2.28,.38,2.8,.95,4.8,3.59,4.8,6.71Z"/><path class="d" d="M13.33,9.2c0,2.4-1.95,4.34-4.34,4.34-.73,0-1.42-.18-2.02-.5-1.38-.73-2.32-2.18-2.32-3.84,0-2.4,1.95-4.34,4.34-4.34,1.65,0,3.09,.92,3.83,2.28,.33,.61,.52,1.31,.52,2.06Z"/></g><g><path class="e" d="M111.22,48.05l-.12-5.28c-2.29,3.99-6.68,5.86-10.67,5.86-8.32,0-14.83-5.74-14.83-15.18s6.62-15.01,14.89-14.95c4.34,0,8.62,1.99,10.73,5.74l.06-5.28h4.69v28.96h-4.63l-.12,.12Zm-10.55-24.97c-5.74,0-10.38,4.1-10.38,10.55s4.63,10.61,10.38,10.61c13.95,0,13.95-21.22,.06-21.22l-.06,.06Z"/><path class="e" d="M141.87,19.04h0v4.1h-9.03v15.3c0,3.4,1.11,5.57,4.57,5.57,1.29,0,2.75-.41,4.04-1.05l1.41,3.99c-1.93,.88-3.69,1.35-5.63,1.41-6.21,.12-9.14-3.52-9.14-9.91v-15.3h-5.8v-4.1h19.58Z"/><path class="e" d="M161.16,18.33c8.85,0,15.06,6.21,15.06,15.18s-6.33,14.95-15.06,14.95-15.01-6.15-15.01-14.95,6.39-15.18,15.01-15.18Zm.06,4.4c-5.92,0-10.26,4.34-10.26,10.79,0,6.1,4.28,10.43,10.2,10.43s10.26-4.34,10.32-10.43c0-6.45-4.45-10.79-10.26-10.79Z"/><path class="e" d="M183.2,19.04h4.45l.29,4.22c1.76-3.4,5.28-4.75,8.56-4.75,3.99,0,8.09,1.7,9.73,6.33,2.11-4.45,6.1-6.33,10.2-6.33,7.62,0,12.19,4.98,12.19,12.9v16.53h-4.81V31.41c0-4.75-2.75-8.38-7.5-8.38s-7.91,3.75-7.91,8.5v16.41h-4.81V31.52c0-4.75-2.99-8.5-7.8-8.5s-7.85,3.75-7.85,8.5v16.41h-4.81V18.98l.06,.06Z"/><path class="e" d="M237.07,47.94h4.81V19.08h-4.81v28.85Z"/><path class="e" d="M255.41,31.17l11.9-12.19h5.98v.29l-13.36,13.36,15.01,14.95v.35h-5.86l-13.66-13.66v13.66h-4.75V19.09h4.75v12.08Z"/></g></g></g></g></svg>